<svg width="18" height="18" viewBox="0 0 18 18" fill="none" xmlns="http://www.w3.org/2000/svg">
    <path d="M17.75 1.13375L16.8663 0.25L0.25 16.8663L1.13375 17.75L2.38375 16.5H15.25C15.5814 16.4995 15.899 16.3676 16.1333 16.1333C16.3676 15.899 16.4995 15.5814 16.5 15.25V2.38375L17.75 1.13375ZM15.25 15.25H3.63375L8.50437 10.3794L9.99125 11.8663C10.2257 12.1006 10.5435 12.2322 10.875 12.2322C11.2065 12.2322 11.5243 12.1006 11.7587 11.8663L12.75 10.875L15.25 13.3731V15.25ZM15.25 11.605L13.6337 9.98875C13.3993 9.75441 13.0815 9.62277 12.75 9.62277C12.4185 9.62277 12.1007 9.75441 11.8663 9.98875L10.875 10.98L9.38937 9.49438L15.25 3.63375V11.605Z" fill="#6E6893"/>
    <path d="M2.75 12.75V10.875L5.875 7.75188L6.73313 8.61062L7.61812 7.72563L6.75875 6.86625C6.52434 6.63191 6.20646 6.50027 5.875 6.50027C5.54354 6.50027 5.22566 6.63191 4.99125 6.86625L2.75 9.1075V2.75H12.75V1.5H2.75C2.41858 1.50033 2.10083 1.63213 1.86648 1.86648C1.63213 2.10083 1.50033 2.41858 1.5 2.75V12.75H2.75Z" fill="#6E6893"/>
</svg>